<svg width="400" height="400" viewBox="0 0 400 400" fill="none" xmlns="http://www.w3.org/2000/svg">
  <rect width="400" height="400" fill="#F3F4F6"/>
  <rect x="50" y="50" width="300" height="300" fill="white" stroke="black" stroke-width="8"/>

  <!-- T-shirt -->
  <path d="M150 100 L130 130 L130 260 L270 260 L270 130 L250 100 Z" fill="#F97316" stroke="black" stroke-width="6"/>

  <!-- Sleeves -->
  <path d="M130 130 L100 150 L110 180 L130 170 Z" fill="#EA580C" stroke="black" stroke-width="5"/>
  <path d="M270 130 L300 150 L290 180 L270 170 Z" fill="#EA580C" stroke="black" stroke-width="5"/>

  <!-- Neck -->
  <path d="M180 100 Q200 110 220 100" stroke="black" stroke-width="5" fill="none"/>

  <!-- Pocket -->
  <rect x="165" y="140" width="70" height="15" fill="#DC2626" stroke="black" stroke-width="3"/>

  <!-- Jeans -->
  <rect x="150" y="260" width="100" height="60" fill="#3B82F6" stroke="black" stroke-width="6"/>
  <line x1="200" y1="260" x2="200" y2="320" stroke="black" stroke-width="4"/>

  <!-- Text -->
  <rect x="120" y="320" width="160" height="40" fill="black"/>
  <text x="200" y="348" font-family="Arial, sans-serif" font-size="28" font-weight="bold" text-anchor="middle" fill="#F97316">CASUAL</text>
</svg>
